<svg id="Livello_1" data-name="Livello 1" xmlns="http://www.w3.org/2000/svg" viewBox="0 0 140 63"><defs><style>.cls-1{fill:#00b97f;}.cls-2{fill:#006369;}</style></defs><title>bper-logo</title><path id="Fill-1" class="cls-1" d="M52.11242,58.78148a2.62719,2.62719,0,0,1-2.01716.91689c-.7335,0-1.28364-.36675-1.28364-1.10027,0-1.28364,1.10027-1.83377,2.934-1.83377h.36675v2.01716Zm2.934-.36675V54.5638c0-2.75066-1.467-3.85093-4.21768-3.85093a6.95659,6.95659,0,0,0-4.401,1.467l1.28364,1.83377a3.79589,3.79589,0,0,1,2.75066-.91689c1.28364,0,1.65038.55014,1.65038,1.467v.55014h-.36675c-2.75066,0-5.68471.91689-5.68471,3.85093a2.99553,2.99553,0,0,0,3.3008,2.934,3.52659,3.52659,0,0,0,2.934-1.467c0,.36675,0,.91689.18339,1.10027h2.934a6.76386,6.76386,0,0,1-.36678-3.11744ZM41.65989,59.69837c-1.83377,0-2.75066-1.467-2.75066-3.48416s.91689-3.3008,2.56727-3.3008a5.42569,5.42569,0,0,1,2.20052.55014l.91689-2.01716a5.41192,5.41192,0,0,0-3.3008-.91689,5.29452,5.29452,0,0,0-5.68471,5.68471,5.10457,5.10457,0,0,0,5.50132,5.50132,5.649,5.649,0,0,0,3.48416-.91689L43.677,58.78148a2.31942,2.31942,0,0,1-2.01711.91689ZM30.4739,50.7129a4.85355,4.85355,0,0,0-3.48416,1.65038V51.07964h-2.934V61.71553h2.934V54.38044a3.00749,3.00749,0,0,1,2.20052-1.28364c1.10027,0,1.467.55014,1.467,1.65038v6.785h2.934V54.01366c.18336-1.83374-.73353-3.30077-3.11744-3.30077ZM18.55437,58.78148a2.62719,2.62719,0,0,1-2.01716.91689c-.7335,0-1.28364-.36675-1.28364-1.10027,0-1.28364,1.10027-1.83377,2.934-1.83377h.36675v2.01716Zm2.934-4.21766c0-2.75066-1.467-3.85093-4.21768-3.85093a6.95659,6.95659,0,0,0-4.401,1.467l1.28364,1.83377a3.79589,3.79589,0,0,1,2.75066-.91689c1.28364,0,1.65038.55014,1.65038,1.467V55.114H18.1876c-2.75066,0-5.68471.91689-5.68471,3.85093a2.99553,2.99553,0,0,0,3.3008,2.934,3.52659,3.52659,0,0,0,2.934-1.467c0,.36675,0,.91689.18339,1.10027h2.934a11.96526,11.96526,0,0,1-.36675-3.11741v-3.851Zm-16.504,4.76779H3.33405V55.29733H5.16782c1.83377,0,2.56727.7335,2.56727,2.01716,0,1.467-.91689,2.01713-2.75066,2.01713ZM3.33405,49.42926h1.467c1.467,0,2.38391.55014,2.38391,1.83377s-.7335,1.83377-2.38391,1.83377h-1.467V49.42926Zm4.401,4.58443h0a3.1798,3.1798,0,0,0,2.56727-3.3008c0-2.75066-2.38391-3.66755-4.95118-3.66755H.4V61.53214H5.16782c3.3008,0,5.68471-1.10027,5.68471-4.03429A3.56237,3.56237,0,0,0,7.7351,54.01369Z"/><path id="Fill-2" class="cls-2" d="M110.79314,16.7881H104.375V7.986h6.60158c2.934,0,3.85092,1.10027,3.85092,3.85093,0,2.934-1.10027,4.95118-4.03431,4.95118Zm12.28629-4.95118c0-7.1517-3.85092-10.63589-11.73615-10.63589H96.48972v34.6583H104.375V23.2063H110.243l6.41821,12.653h9.16886l-8.43535-14.12a11.38118,11.38118,0,0,0,5.68469-9.90236ZM47.71135,1.201h-14.12v34.6583h8.06859V7.986h6.23482c2.934,0,4.03429,1.10027,4.03429,4.401,0,3.66755-2.56727,5.86807-6.96834,5.86807H43.31028l1.28364,6.23482h1.467c8.80212,0,13.93669-4.95118,13.93669-11.73614C60.3644,5.23532,57.247,1.201,47.71135,1.201Zm83.06992,20.905c-1.467,1.467-1.467,6.05146,0,7.51848s5.86807,1.467,7.33509,0,1.467-6.05146,0-7.51848c-1.28364-1.467-5.86807-1.467-7.33509,0Zm7.51847-6.60157c1.467-1.467,1.467-6.05146,0-7.51848s-5.86807-1.467-7.33509,0-1.467,6.05146,0,7.51848c1.28365,1.467,5.86808,1.467,7.33509,0ZM15.25358,28.891H8.28523V21.00578h7.33509c2.75066,0,4.03429,1.10027,4.03429,3.66755,0,3.11741-1.65038,4.21768-4.401,4.21768ZM8.28523,7.986h6.96834c2.75066,0,3.48416.7335,3.48416,3.48416,0,2.38391-1.28364,3.66755-3.48416,3.66755H8.28523V7.986Zm13.93669,9.53561h0c2.56727-1.10027,4.401-4.21768,4.401-7.51848,0-5.13457-2.934-8.80212-10.26914-8.80212H.4V35.8593H16.72057c7.1517,0,11.36939-3.66755,11.36939-10.08575,0-4.401-2.01713-7.33506-5.868-8.252Zm50.97889,3.85093H86.58736V14.77093H73.20081V8.16934H89.15463V1.201h-23.839v34.6583H89.88813v-7.1517H73.20078V21.37253Z"/></svg>